<?xml version="1.0" encoding="UTF-8" standalone="no"?>
<svg
   xmlns:dc="http://purl.org/dc/elements/1.1/"
   xmlns:cc="http://creativecommons.org/ns#"
   xmlns:rdf="http://www.w3.org/1999/02/22-rdf-syntax-ns#"
   xmlns:svg="http://www.w3.org/2000/svg"
   xmlns="http://www.w3.org/2000/svg"
   xmlns:sodipodi="http://sodipodi.sourceforge.net/DTD/sodipodi-0.dtd"
   xmlns:inkscape="http://www.inkscape.org/namespaces/inkscape"
   id="Lissajous_curves"
   version="1.1"
   width="687"
   height="460"
   sodipodi:docname="lissajous.svg"
   inkscape:version="0.92.4 (5da689c313, 2019-01-14)">
  <metadata
     id="metadata32">
    <rdf:RDF>
      <cc:Work
         rdf:about="">
        <dc:format>image/svg+xml</dc:format>
        <dc:type
           rdf:resource="http://purl.org/dc/dcmitype/StillImage" />
        <dc:title>Lissajous.svg
    six Lissajous curves
  </dc:title>
      </cc:Work>
    </rdf:RDF>
  </metadata>
  <defs
     id="defs30" />
  <sodipodi:namedview
     pagecolor="#ffffff"
     bordercolor="#666666"
     borderopacity="1"
     objecttolerance="10"
     gridtolerance="10"
     guidetolerance="10"
     inkscape:pageopacity="0"
     inkscape:pageshadow="2"
     inkscape:window-width="1871"
     inkscape:window-height="1020"
     id="namedview28"
     showgrid="false"
     showborder="false"
     inkscape:zoom="1.026087"
     inkscape:cx="594.94068"
     inkscape:cy="-124.74576"
     inkscape:window-x="0"
     inkscape:window-y="0"
     inkscape:window-maximized="1"
     inkscape:current-layer="Lissajous_curves" />
  <title
     id="title2">Lissajous.svg
    six Lissajous curves
  </title>
  <desc
     id="desc4">
     Lissajous-curves

     left-top: 		f/f=1 	phi=0
     center-top: 	f/f=1 	phi=pi/2
     right-top: 	f/f=1 	phi=pi/4
     left-bottom: 	f/f=2/1 phi=0
     center-bottom: 	f/f=3/2 phi=0
     right-bottom: 	f/f=4/3 phi=0

     plotted with several adapted cubic bezier-curves
     The plotcurves were calculated by some fancy code. The bezier-curve
     controlpoints are placed on tangents of the function-curve. They are
     furthermore positioned in a way to minimize the average quadratic distance
     between the bezier-curve and the function. This gives an accuracy, so that
     the deviation is in no point greater than 0.000001.

     about: http://commons.wikimedia.org/wiki/Image:Lissajous.svg
     source: http://commons.wikimedia.org/
     rights: GNU Free Documentation license,
             Creative Commons Attribution ShareAlike license
  </desc>
  <rect
     id="background"
     x0="0"
     y0="0"
     width="687"
     height="460"
     style="fill:#ffffff;stroke:none" />
  <rect
     style="fill:none;stroke:#808080;stroke-width:1px;stroke-linejoin:miter"
     id="rect7"
     height="220"
     width="220"
     y="6.5"
     x="6.5" />
  <rect
     style="fill:none;stroke:#808080;stroke-width:1px;stroke-linejoin:miter"
     id="rect11"
     height="220"
     width="220"
     y="6.5"
     x="234.5" />
  <rect
     style="fill:none;stroke:#808080;stroke-width:1px;stroke-linejoin:miter"
     id="rect13"
     height="220"
     width="220"
     y="233.5"
     x="466.5" />
  <rect
     style="fill:none;stroke:#808080;stroke-width:1px;stroke-linejoin:miter"
     id="rect15"
     height="220"
     width="220"
     y="743.5"
     x="203.5" />
  <line
     style="fill:none;stroke:#000000;stroke-width:3px;stroke-linecap:round;stroke-linejoin:round"
     y2="16.5"
     x2="216.5"
     y1="216.5"
     x1="16.5"
     id="Lissajous_1-1-0" />
  <path
     style="fill:none;stroke:#000000;stroke-width:3px;stroke-linecap:round;stroke-linejoin:round"
     inkscape:connector-curvature="0"
     d="M 252.11205,208.88795 A 54.11961,130.6563 45 0 1 436.88795,24.112047 54.11961,130.6563 45 0 1 252.11205,208.88795 Z"
     id="Lissajous_1-1-0.25" />
  <path
     style="fill:none;stroke:#000000;stroke-width:3px;stroke-linecap:round;stroke-linejoin:round"
     inkscape:connector-curvature="0"
     d="M 576.5,343.5 C 566.2836,323.0673 556.056,302.6117 546.0806,285.5444 538.4273,272.4499 530.8344,261.1991 523.5221,253.6351 517.6573,247.5683 511.6125,243.5 505.7893,243.5 c -3.2727,0 -6.8441,1.2849 -10.3845,5.1003 -5.5743,6.0074 -9.6901,16.8021 -12.6164,29.4854 -4.2418,18.3855 -6.2884,42.0585 -6.2884,65.4143 0,23.3558 2.0466,47.0288 6.2884,65.4143 2.9263,12.6833 7.0421,23.478 12.6164,29.4854 3.5404,3.8154 7.1118,5.1003 10.3845,5.1003 5.8232,0 11.868,-4.0683 17.7328,-10.1351 7.3123,-7.564 14.9052,-18.8148 22.5585,-31.9093 9.9754,-17.0673 20.203,-37.5229 30.4194,-57.9556 10.2164,-20.4327 20.444,-40.8883 30.4194,-57.9556 7.6533,-13.0945 15.2462,-24.3453 22.5585,-31.9093 5.8648,-6.0668 11.9096,-10.1351 17.7328,-10.1351 3.2727,0 6.8441,1.2849 10.3845,5.1003 5.5743,6.0074 9.6901,16.8021 12.6164,29.4854 4.2418,18.3855 6.2884,42.0585 6.2884,65.4143 0,23.3558 -2.0466,47.0288 -6.2884,65.4143 -2.9263,12.6833 -7.0421,23.478 -12.6164,29.4854 -3.5404,3.8154 -7.1118,5.1003 -10.3845,5.1003 -5.8232,0 -11.868,-4.0683 -17.7328,-10.1351 -7.3123,-7.564 -14.9052,-18.8148 -22.5585,-31.9093 C 596.944,384.3883 586.7164,363.9327 576.5,343.5 Z"
     id="Lissajous_2-1-0" />
  <path
     style="fill:none;stroke:#000000;stroke-width:3px;stroke-linecap:round;stroke-linejoin:round"
     inkscape:connector-curvature="0"
     d="m 313.5,853.5 c -14.817,-22.2255 -29.6899,-44.5357 -43.5105,-62.5079 -9.5444,-12.4113 -18.9734,-23.2567 -27.4187,-30.0567 -5.1343,-4.1341 -10.727,-7.4354 -15.6733,-7.4354 -4.663,0 -7.8816,2.9357 -9.9901,7.612 -2.3281,5.1634 -3.4074,12.6804 -3.4074,21.6773 0,18.8663 4.7474,44.7101 13.3413,70.5421 5.3041,15.9434 12.0797,31.9019 20.1303,46.2565 7.6313,13.6068 16.3361,25.6438 25.9202,34.8769 12.7061,12.2409 26.4184,19.0352 40.6082,19.0352 14.1898,0 27.9021,-6.7943 40.6082,-19.0352 9.5841,-9.2331 18.2889,-21.2701 25.9202,-34.8769 8.0506,-14.3546 14.8262,-30.3131 20.1303,-46.2565 8.5939,-25.832 13.3413,-51.6758 13.3413,-70.5421 0,-8.9969 -1.0793,-16.5139 -3.4074,-21.6773 -2.1085,-4.6763 -5.3271,-7.612 -9.9901,-7.612 -4.9463,0 -10.539,3.3013 -15.6733,7.4354 -8.4453,6.8 -17.8743,17.6454 -27.4187,30.0567 -13.8206,17.9722 -28.6935,40.2824 -43.5105,62.5079 -14.817,22.2255 -29.6899,44.5357 -43.5105,62.5079 -9.5444,12.4113 -18.9734,23.2567 -27.4187,30.0567 -5.1343,4.1341 -10.727,7.4354 -15.6733,7.4354 -4.663,0 -7.8816,-2.9357 -9.9901,-7.612 -2.3281,-5.1634 -3.4074,-12.6804 -3.4074,-21.6773 0,-18.8663 4.7474,-44.7101 13.3413,-70.5421 5.3041,-15.9434 12.0797,-31.9019 20.1303,-46.2565 7.6313,-13.6068 16.3361,-25.6438 25.9202,-34.8769 C 285.5979,760.2943 299.3102,753.5 313.5,753.5 c 14.1898,0 27.9021,6.7943 40.6082,19.0352 9.5841,9.2331 18.2889,21.2701 25.9202,34.8769 8.0506,14.3546 14.8262,30.3131 20.1303,46.2565 8.5939,25.832 13.3413,51.6758 13.3413,70.5421 0,8.9969 -1.0793,16.5139 -3.4074,21.6773 -2.1085,4.6763 -5.3271,7.612 -9.9901,7.612 -4.9463,0 -10.539,-3.3013 -15.6733,-7.4354 -8.4453,-6.8 -17.8743,-17.6454 -27.4187,-30.0567 C 343.1899,898.0357 328.317,875.7255 313.5,853.5 Z"
     id="Lissajous_3-2-0" />
  <rect
     x="992.5"
     y="6.5"
     width="220"
     height="220"
     id="rect853"
     style="fill:none;stroke:#808080;stroke-width:1px;stroke-linejoin:miter" />
  <line
     id="line855"
     x1="1202.5"
     y1="216.5"
     x2="1002.5"
     y2="16.5"
     style="fill:none;stroke:#000000;stroke-width:3px;stroke-linecap:round;stroke-linejoin:round" />
  <rect
     x="700.5"
     y="2.5"
     width="220"
     height="220"
     id="rect867"
     style="fill:none;stroke:#808080;stroke-width:1px;stroke-linejoin:miter" />
  <path
     id="path869"
     d="m 902.88795,204.88795 a 130.6563,54.11961 45 0 0 -184.7759,-184.7759 130.6563,54.11961 45 0 0 184.7759,184.7759 z"
     inkscape:connector-curvature="0"
     style="fill:none;stroke:#000000;stroke-width:3px;stroke-linecap:round;stroke-linejoin:round" />
  <rect
     style="fill:none;stroke:#808080;stroke-width:1px;stroke-linejoin:miter"
     id="rect9"
     height="220"
     width="220"
     y="3.2542419"
     x="466.35593" />
  <circle
     style="fill:none;stroke:#000000;stroke-width:3px;stroke-linecap:round;stroke-linejoin:round"
     r="100"
     cy="-113.25424"
     cx="576.35596"
     transform="scale(1,-1)"
     id="Lissajous_1-1-0.5" />
  <rect
     style="fill:none;stroke:#808080;stroke-width:1px;stroke-linejoin:miter"
     id="rect17"
     height="220"
     width="220"
     y="457.63562"
     x="123.89831" />
  <path
     style="fill:none;stroke:#000000;stroke-width:3px;stroke-linecap:round;stroke-linejoin:round"
     inkscape:connector-curvature="0"
     d="m 233.89831,567.63559 c 22.7736,-17.0802 45.6776,-34.2574 63.9254,-49.7007 11.8547,-10.0327 22.479,-19.9554 29.0899,-28.3904 3.7227,-4.7498 6.9847,-10.0628 6.9847,-14.2969 0,-5.3412 -5.1965,-7.612 -13.3975,-7.612 -12.1991,0 -31.6358,5.0242 -53.4308,13.8107 -17.5206,7.0634 -36.5796,16.5633 -54.7141,27.8781 -13.4973,8.4216 -26.3154,17.7444 -37.5466,27.6838 -8.8062,7.7933 -19.3223,18.3406 -27.5135,30.6274 -9.8864,14.8296 -14.3067,29.0764 -13.2427,42.0901 0.9374,11.4655 6.0974,21.5446 14.5546,29.9688 7.0291,7.0016 15.2639,11.7941 21.7883,14.9197 18.0021,8.6241 40.6709,13.0214 63.5023,13.0214 22.8314,0 45.5002,-4.3973 63.5023,-13.0214 6.5244,-3.1256 14.7592,-7.9181 21.7883,-14.9197 8.4572,-8.4242 13.6172,-18.5033 14.5546,-29.9688 1.064,-13.0137 -3.3563,-27.2605 -13.2427,-42.0901 -8.1912,-12.2868 -18.7073,-22.8341 -27.5135,-30.6274 -11.2312,-9.9394 -24.0493,-19.2622 -37.5466,-27.6838 -18.1345,-11.3148 -37.1935,-20.8147 -54.7141,-27.8781 -21.795,-8.7865 -41.2317,-13.8107 -53.4308,-13.8107 -8.201,0 -13.3975,2.2708 -13.3975,7.612 0,4.2341 3.262,9.5471 6.9847,14.2969 6.6109,8.435 17.2352,18.3577 29.0899,28.3904 18.2478,15.4433 41.1518,32.6205 63.9254,49.7007 22.7736,17.0802 45.6776,34.2574 63.9254,49.7007 11.8547,10.0327 22.479,19.9554 29.0899,28.3904 3.7227,4.7498 6.9847,10.0628 6.9847,14.2969 0,5.3412 -5.1965,7.612 -13.3975,7.612 -12.1991,0 -31.6358,-5.0242 -53.4308,-13.8107 -17.5206,-7.0634 -36.5796,-16.5633 -54.7141,-27.8781 -13.4973,-8.4216 -26.3154,-17.7444 -37.5466,-27.6838 -8.8062,-7.7933 -19.3223,-18.3406 -27.5135,-30.6274 -9.8864,-14.8296 -14.3067,-29.0764 -13.2427,-42.0901 0.9374,-11.4655 6.0974,-21.5446 14.5546,-29.9688 7.0291,-7.0016 15.2639,-11.7941 21.7883,-14.9197 18.0021,-8.6241 40.6709,-13.0214 63.5023,-13.0214 22.8314,0 45.5002,4.3973 63.5023,13.0214 6.5244,3.1256 14.7592,7.9181 21.7883,14.9197 8.4572,8.4242 13.6172,18.5033 14.5546,29.9688 1.064,13.0137 -3.3563,27.2605 -13.2427,42.0901 -8.1912,12.2868 -18.7073,22.8341 -27.5135,30.6274 -11.2312,9.9394 -24.0493,19.2622 -37.5466,27.6838 -18.1345,11.3148 -37.1935,20.8147 -54.7141,27.8781 -21.795,8.7865 -41.2317,13.8107 -53.4308,13.8107 -8.201,0 -13.3975,-2.2708 -13.3975,-7.612 0,-4.2341 3.262,-9.5471 6.9847,-14.2969 6.6109,-8.435 17.2352,-18.3577 29.0899,-28.3904 18.2478,-15.4433 41.1518,-32.6205 63.9254,-49.7007 z"
     id="Lissajous_4-3-0" />
  <rect
     x="747.5"
     y="743.5"
     width="220"
     height="220"
     id="rect907"
     style="fill:none;stroke:#808080;stroke-width:1px;stroke-linejoin:miter" />
  <path
     id="path909"
     d="m 857.5,853.5 c -14.817,-22.2255 -29.6899,-44.5357 -43.5105,-62.5079 -9.5444,-12.4113 -18.9734,-23.2567 -27.4187,-30.0567 -5.1343,-4.1341 -10.727,-7.4354 -15.6733,-7.4354 -4.663,0 -7.8816,2.9357 -9.9901,7.612 -2.3281,5.1634 -3.4074,12.6804 -3.4074,21.6773 0,18.8663 4.7474,44.7101 13.3413,70.5421 5.3041,15.9434 12.0797,31.9019 20.1303,46.2565 7.6313,13.6068 16.3361,25.6438 25.9202,34.8769 12.7061,12.2409 26.4184,19.0352 40.6082,19.0352 14.1898,0 27.9021,-6.7943 40.6082,-19.0352 9.5841,-9.2331 18.2889,-21.2701 25.9202,-34.8769 8.0506,-14.3546 14.8262,-30.3131 20.1303,-46.2565 8.5939,-25.832 13.3413,-51.6758 13.3413,-70.5421 0,-8.9969 -1.0793,-16.5139 -3.4074,-21.6773 -2.1085,-4.6763 -5.3271,-7.612 -9.9901,-7.612 -4.9463,0 -10.539,3.3013 -15.6733,7.4354 -8.4453,6.8 -17.8743,17.6454 -27.4187,30.0567 -13.8206,17.9722 -28.6935,40.2824 -43.5105,62.5079 -14.817,22.2255 -29.6899,44.5357 -43.5105,62.5079 -9.5444,12.4113 -18.9734,23.2567 -27.4187,30.0567 -5.1343,4.1341 -10.727,7.4354 -15.6733,7.4354 -4.663,0 -7.8816,-2.9357 -9.9901,-7.612 -2.3281,-5.1634 -3.4074,-12.6804 -3.4074,-21.6773 0,-18.8663 4.7474,-44.7101 13.3413,-70.5421 5.3041,-15.9434 12.0797,-31.9019 20.1303,-46.2565 7.6313,-13.6068 16.3361,-25.6438 25.9202,-34.8769 C 829.5979,760.2943 843.3102,753.5 857.5,753.5 c 14.1898,0 27.9021,6.7943 40.6082,19.0352 9.5841,9.2331 18.2889,21.2701 25.9202,34.8769 8.0506,14.3546 14.8262,30.3131 20.1303,46.2565 8.5939,25.832 13.3413,51.6758 13.3413,70.5421 0,8.9969 -1.0793,16.5139 -3.4074,21.6773 -2.1085,4.6763 -5.3271,7.612 -9.9901,7.612 -4.9463,0 -10.539,-3.3013 -15.6733,-7.4354 -8.4453,-6.8 -17.8743,-17.6454 -27.4187,-30.0567 C 887.1899,898.0357 872.317,875.7255 857.5,853.5 Z"
     inkscape:connector-curvature="0"
     style="fill:none;stroke:#000000;stroke-width:3px;stroke-linecap:round;stroke-linejoin:round" />
  <path
     id="path994"
     title="sin(x)"
     d="M 43.85593 343.050835 l 360.59323 0 M 43.85593 439.53388 l 0 -192.96609 M 43.85593 343.050835 C 45.0700486195 338.827671426 46.2841672391 334.604565032 47.4982858586 330.417723161 C 48.7124044781 326.23088129 49.9265230976 322.080562539 51.1406417172 318.002132986 C 52.3547603367 313.923703433 53.5688789562 309.917634073 54.7829975758 306.017840769 C 55.9971161953 302.118047466 57.2112348148 298.325205502 58.4253534343 294.671196554 C 59.6394720539 291.017187606 60.8535906734 287.502879617 62.0677092929 284.157571123 C 63.2818279125 280.812262628 64.495946532 277.636999288 65.7100651515 274.657992025 C 66.924183771 271.678984763 68.1383023906 268.897438948 69.3524210101 266.336026583 C 70.5665396296 263.774614217 71.7806582492 261.434679628 72.9947768687 259.334965521 C 74.2088954882 257.235251413 75.4230141077 255.377217922 76.6371327273 253.775355738 C 77.8512513468 252.173493554 79.0653699663 250.82935348 80.2794885859 249.752924684 C 81.4936072054 248.676495887 82.7077258249 247.869393139 83.9218444444 247.336932086 C 85.135963064 246.804471034 86.3500816835 246.548302609 87.564200303 246.568977414 C 88.7783189226 246.589652219 89.9924375421 246.888828922 91.2065561616 247.462283598 C 92.4206747811 248.035738274 93.6347934007 248.885108768 94.8489120202 250.001469358 C 96.0630306397 251.117829947 97.2771492593 252.502769452 98.4912678788 254.142814039 C 99.7053864983 255.782858626 100.919505118 257.679520733 102.133623737 259.815010413 C 103.347742357 261.950500094 104.561860976 264.326227363 105.775979596 266.920392474 C 106.990098215 269.514557585 108.204216835 272.328443852 109.418335455 275.336617084 C 110.632454074 278.344790316 111.846572694 281.54838503 113.060691313 284.918770527 C 114.274809933 288.289156025 115.488928552 291.827298489 116.703047172 295.501863688 C 117.917165791 299.176428887 119.131284411 302.988198036 120.34540303 306.903672893 C 121.55952165 310.81914775 122.773640269 314.838911111 123.987758889 318.92787751 C 125.201877508 323.016843909 126.415996128 327.175387686 127.630114747 331.367440268 C 128.844233367 335.55949285 130.058351987 339.785213676 131.272470606 344.008172104 C 132.486589226 348.231130533 133.700707845 352.451268359 134.914826465 356.632420151 C 136.128945084 360.813571943 137.343063704 364.955462851 138.557182323 369.022815364 C 139.771300943 373.090167877 140.985419562 377.082495234 142.199538182 380.966015265 C 143.413656801 384.849535296 144.627775421 388.623557711 145.84189404 392.256377354 C 147.05601266 395.889196997 148.270131279 399.379931934 149.484249899 402.699499936 C 150.698368519 406.019067938 151.912487138 409.166410613 153.126605758 412.115569405 C 154.340724377 415.064728198 155.554842997 417.814486481 156.768961616 420.34245634 C 157.983080236 422.8704262 159.197198855 425.175253721 160.411317475 427.238507113 C 161.625436094 429.301760505 162.839554714 431.121971879 164.053673333 432.684982932 C 165.267791953 434.247993984 166.481910572 435.552248128 167.696029192 436.58810433 C 168.910147811 437.623960532 170.124266431 438.389800308 171.338385051 438.880665898 C 172.55250367 439.371531488 173.76662229 439.585770379 174.980740909 439.52319345 C 176.194859529 439.46061652 177.408978148 439.11956568 178.623096768 438.504623704 C 179.837215387 437.889681728 181.051334007 436.999213499 182.265452626 435.842494778 C 183.479571246 434.685776057 184.693689865 433.261222855 185.907808485 431.582644207 C 187.121927104 429.904065559 188.336045724 427.969955876 189.550164343 425.798419698 C 190.764282963 423.62688352 191.978401582 421.216519583 193.192520202 418.5894162 C 194.406638822 415.962312818 195.620757441 413.117197178 196.834876061 410.079761044 C 198.04899468 407.042324909 199.2631133 403.811445837 200.477231919 400.415976666 C 201.691350539 397.020507496 202.905469158 393.45949548 204.119587778 389.764457737 C 205.333706397 386.069419994 206.547825017 382.239589876 207.761943636 378.308606109 C 208.976062256 374.377622341 210.190180875 370.344917575 211.404299495 366.245672937 C 212.618418114 362.146428299 213.832536734 357.980285509 215.046655354 353.783362334 C 216.260773973 349.58643916 217.474892593 345.358592558 218.689011212 341.136255046 C 219.903129832 336.913917534 221.117248451 332.697163771 222.331367071 328.522113714 C 223.54548569 324.347063658 224.75960431 320.214008383 225.973722929 316.158133362 C 227.187841549 312.102258341 228.401960168 308.124066052 229.616078788 304.257201645 C 230.830197407 300.390337239 232.044316027 296.635505945 233.258434646 293.024233276 C 234.472553266 289.412960608 235.686671886 285.946142404 236.900790505 282.652641723 C 238.114909125 279.359141042 239.329027744 276.240028906 240.543146364 273.321008944 C 241.757264983 270.401988981 242.971383603 267.684288957 244.185502222 265.190010496 C 245.399620842 262.695732034 246.613739461 260.426238502 247.827858081 258.399648964 C 249.0419767 256.373059426 250.25609532 254.590849377 251.470213939 253.066843343 C 252.684332559 251.542837308 253.898451178 250.278597505 255.112569798 249.283415883 C 256.326688418 248.28823426 257.540807037 247.563732858 258.754925657 247.114511059 C 259.969044276 246.665289259 261.183162896 246.493000996 262.397281515 246.597473888 C 263.611400135 246.701946781 264.825518754 247.08483818 266.039637374 247.741206911 C 267.253755993 248.397575643 268.467874613 249.329053936 269.681993232 250.526016903 C 270.896111852 251.722979871 272.110230471 253.187006516 273.324349091 254.90395396 C 274.53846771 256.620901405 275.75258633 258.592268241 276.966704949 260.799637118 C 278.180823569 263.007005994 279.394942189 265.451769287 280.609060808 268.111552289 C 281.823179428 270.771335291 283.037298047 273.647400187 284.251416667 276.713800172 C 285.465535286 279.780200157 286.679653906 283.038045492 287.893772525 286.458264034 C 289.107891145 289.878482575 290.322009764 293.462013544 291.536128384 297.177160035 C 292.750247003 300.892306526 293.964365623 304.739820547 295.178484242 308.685926199 C 296.392602862 312.632031851 297.606721481 316.677280983 298.820840101 320.786400268 C 300.034958721 324.895519553 301.24907734 329.068851177 302.46319596 333.270231736 C 303.677314579 337.471612294 304.891433199 341.701168419 306.105551818 345.922469303 C 307.319670438 350.143770188 308.533789057 354.356724727 309.747907677 358.525261993 C 310.962026296 362.693799259 312.176144916 366.817611981 313.390263535 370.861610188 C 314.604382155 374.905608395 315.818500774 378.869273942 317.032619394 382.719102011 C 318.246738013 386.56893008 319.460856633 390.304200571 320.674975253 393.893570716 C 321.889093872 397.482940861 323.103212492 400.925501006 324.317331111 404.192610104 C 325.531449731 407.459719202 326.74556835 410.550293707 327.95968697 413.438887446 C 329.173805589 416.327481186 330.387924209 419.012855379 331.602042828 421.473196869 C 332.816161448 423.933538358 334.030280067 426.167474458 335.244398687 428.157200614 C 336.458517306 430.14692677 337.672635926 431.890960025 338.886754545 433.375810995 C 340.100873165 434.860661964 341.314991785 436.084762956 342.529110404 437.039172018 C 343.743229024 437.99358108 344.957347643 438.676672778 346.171466263 439.084206559 C 347.385584882 439.49174034 348.599703502 439.622061013 349.813822121 439.475702443 C 351.027940741 439.329343873 352.24205936 438.904649613 353.45617798 438.206918749 C 354.670296599 437.509187885 355.884415219 436.536791236 357.098533838 435.299701869 C 358.312652458 434.062612503 359.526771077 432.559256556 360.740889697 430.804109357 C 361.955008316 429.048962158 363.169126936 427.04053226 364.383245556 424.797548012 C 365.597364175 422.554563764 366.811482795 420.075641816 368.025601414 417.383441063 C 369.239720034 414.691240311 370.453838653 411.784509321 371.667957273 408.689447388 C 372.882075892 405.594385456 374.096194512 402.30989461 375.310313131 398.865263435 C 376.524431751 395.420632261 377.73855037 391.814935156 378.95266899 388.080045693 C 380.166787609 384.34515623 381.380906229 380.480337113 382.595024848 376.519498091 C 383.809143468 372.558659068 385.023262088 368.501263847 386.237380707 364.382674479 C 387.451499327 360.26408511 388.665617946 356.083975538 389.879736566 351.878551243 C 391.093855185 347.673126948 392.307973805 343.442277722 393.522092424 339.222429074 C 394.736211044 335.002580427 395.950329663 330.793839898 397.164448283 326.632225837 C 398.378566902 322.470611776 399.592685522 318.356447618 400.806804141 314.324724377 C 402.020922761 310.293001136 403.23504138 306.344252574 404.44916 302.511839878"
     style="opacity:0.5;fill:none;fill-opacity:0;stroke:none;stroke-width:1.70000005;stroke-linecap:round;stroke-linejoin:round;stroke-miterlimit:4;stroke-dasharray:none;stroke-dashoffset:5.11999989;stroke-opacity:1" />
  <rect
     style="opacity:0.5;fill:none;fill-opacity:0;stroke:none;stroke-width:1.70000005;stroke-linecap:round;stroke-linejoin:round;stroke-miterlimit:4;stroke-dasharray:none;stroke-dashoffset:5.11999989;stroke-opacity:1"
     id="rect998"
     width="219.27966"
     height="205.63559"
     x="759.19489"
     y="389.83051"
     rx="14.2222"
     ry="6.6223698" />
  <path
     style="opacity:0.5;fill:none;fill-opacity:0;stroke:none;stroke-width:1.70000005;stroke-linecap:round;stroke-linejoin:round;stroke-miterlimit:4;stroke-dasharray:none;stroke-dashoffset:5.11999989;stroke-opacity:1"
     id="path1000"
     sodipodi:type="arc"
     sodipodi:cx="1024.2797"
     sodipodi:cy="510.67798"
     sodipodi:rx="92.584747"
     sodipodi:ry="100.38136"
     sodipodi:start="0"
     sodipodi:end="6.2467254"
     sodipodi:open="true"
     d="m 1116.8644,510.67798 a 92.584747,100.38136 0 0 1 -91.7408,100.37719 92.584747,100.38136 0 0 1 -93.4133,-98.54735 92.584747,100.38136 0 0 1 90.038,-102.17368 92.584747,100.38136 0 0 1 95.0546,96.68475" />
  <path
     style="opacity:0.5;fill:none;fill-opacity:0;stroke:none;stroke-width:1.70000005;stroke-linecap:round;stroke-linejoin:round;stroke-miterlimit:4;stroke-dasharray:none;stroke-dashoffset:5.11999989;stroke-opacity:1"
     id="path1002"
     sodipodi:type="arc"
     sodipodi:cx="985.78394"
     sodipodi:cy="491.67374"
     sodipodi:rx="143.75"
     sodipodi:ry="110.61441"
     sodipodi:start="0.1166481"
     sodipodi:end="6.2467254"
     d="M 1128.5571,504.54746 A 143.75,110.61441 0 0 1 974.52962,601.94862 143.75,110.61441 0 0 1 842.14946,487.23994 143.75,110.61441 0 0 1 986.04514,381.05951 143.75,110.61441 0 0 1 1129.4384,487.64164"
     sodipodi:open="true" />
  <path
     sodipodi:type="star"
     style="opacity:0.5;fill:none;fill-opacity:0;stroke:none;stroke-width:1.70000005;stroke-linecap:round;stroke-linejoin:round;stroke-miterlimit:4;stroke-dasharray:none;stroke-dashoffset:5.11999989;stroke-opacity:1"
     id="path1008"
     sodipodi:sides="5"
     sodipodi:cx="958.98303"
     sodipodi:cy="447.33051"
     sodipodi:r1="147.24167"
     sodipodi:r2="73.620834"
     sodipodi:arg1="1.6038968"
     sodipodi:arg2="2.2322153"
     inkscape:flatsided="false"
     inkscape:rounded="0"
     inkscape:randomized="0"
     d="m 954.11015,594.49152 -40.34777,-89.06524 -96.24359,-17.2549 72.23792,-65.89569 -13.33051,-96.86515 84.99327,48.33946 88.00483,-42.61105 -19.7091,95.77112 67.7205,70.53007 -97.1742,10.85035 z"
     inkscape:transform-center-x="-2.4364407"
     inkscape:transform-center-y="34.680235" />
  <rect
     style="fill:none;stroke:#808080;stroke-width:1px;stroke-linejoin:miter"
     id="rect1488"
     height="220"
     width="220"
     y="6.5"
     x="992.5" />
  <rect
     x="986.5"
     y="268.5"
     width="220"
     height="220"
     id="rect1523"
     style="fill:none;stroke:#000000;stroke-width:3;stroke-linejoin:miter;stroke-miterlimit:4;stroke-dasharray:none" />
  <path
     id="path1593"
     title="cos(t) cos(t + pi/2)"
     d=" M 936.5 378.5 C 936.499139392 386.444257223 935.635201113 394.388038514 933.928261128 402.146748423 C 932.221321143 409.905458332 929.668222125 417.477427229 926.333296164 424.687801172 C 922.998370202 431.898175114 918.877211734 438.744274767 914.070237228 445.069163671 C 909.263262721 451.394052576 903.766745592 457.194166973 897.712491326 462.337826064 C 891.65823706 467.481485155 885.043372302 471.964407394 878.024928477 475.686324889 C 871.006484652 479.408242384 863.582575989 482.364356003 855.928117238 484.490499177 C 848.273658488 486.616642351 840.387839637 487.907722763 832.455279944 488.338675524 C 824.522720252 488.769628285 816.543723339 488.335306004 808.703980379 487.05091748 C 800.864237419 485.766528955 793.165151473 483.627112409 785.784802913 480.68743918 C 778.404454353 477.74776595 771.345280074 474.003291879 764.76942281 469.545789797 C 758.193565546 465.088287715 752.104382079 459.913843565 746.640495888 454.146940474 C 741.176609698 448.380037383 736.342140493 442.017574411 732.245710622 435.210924289 C 728.14928075 428.404274168 724.795580214 421.151294071 722.25815117 413.623168315 C 719.720722125 406.095042558 718.004605569 398.290686625 717.144824713 390.393092027 C 716.285043857 382.495497428 716.286754983 374.504688668 717.144824713 366.606907973 C 718.002894443 358.709127279 719.72235324 350.905507028 722.25815117 343.376831685 C 724.793949099 335.848156342 728.150755586 328.596613211 732.245710622 321.789075711 C 736.340665657 314.98153821 741.177859293 308.621146296 746.640495888 302.853059526 C 752.103132484 297.084972756 758.19453147 291.913136916 764.76942281 287.454210203 C 771.34431415 282.99528349 778.40509144 279.253833019 785.784802913 276.31256082 C 793.164514385 273.371288622 800.864515881 271.235169585 808.703980379 269.94908252 C 816.543444878 268.662995455 824.522627067 268.232090406 832.455279944 268.661324476 C 840.387932822 269.090558547 848.273198014 270.385016126 855.928117238 272.509500823 C 863.583036463 274.63398552 871.005678421 277.59327833 878.024928477 281.313675111 C 885.044178533 285.034071892 891.657122769 289.51982669 897.712491326 294.662173936 C 903.767859883 299.804521182 909.261892474 305.606989059 914.070237228 311.930836329 C 918.878581981 318.254683598 922.99680807 325.102547605 926.333296164 332.312198828 C 929.669784258 339.521850052 932.219640169 347.094911678 933.928261128 354.853251577 C 935.636882088 362.611591475 936.499139392 370.555742777 936.5 378.5"
     style="fill:none;stroke:#000000;stroke-width:3;stroke-linejoin:miter;stroke-miterlimit:4;stroke-dasharray:none" />
  <rect
     style="fill:none;stroke:#808080;stroke-width:1px;stroke-linejoin:miter"
     id="rect1632"
     height="220"
     width="220"
     y="528.5"
     x="992.5" />
  <path
     id="path2178"
     title="3*cos(t) 2*cos(t+pi/4 )"
     d=" M 1129.5 362.943650814 C 1129.4911384 369.52987524 1119.62868814 380.49349168 1106.29837239 388.735795667 C 1092.96805664 396.978099655 1077.24361912 401.818035415 1069.31867281 400.134781769 C 1061.39372651 398.451528123 1061.93608819 390.353707975 1070.56024787 381.111819378 C 1079.18440756 371.869930782 1095.23092154 362.221179427 1108.27724531 358.416223011 C 1121.32356908 354.611266596 1130.31028131 356.979264996 1129.43356032 363.961615419 C 1128.55683934 370.943965841 1117.84700129 381.998931144 1104.28004487 389.950291775 C 1090.71308846 397.901652407 1075.36643796 402.0985429 1068.18654736 399.838034444 C 1061.00665677 397.577525989 1062.60302837 389.014845287 1071.90627316 379.721102617 C 1081.20951796 370.427359946 1097.50415896 361.145600718 1110.20869543 357.88710605 C 1122.9132319 354.628611382 1130.99328214 357.679405216 1129.23450882 365.038120967 C 1127.4757355 372.396836718 1115.9793576 383.490281647 1102.23038986 391.1186816 C 1088.48142212 398.747081553 1073.5743542 402.284027383 1067.16843019 399.455366387 C 1060.76250619 396.62670539 1063.40645969 387.633643028 1073.35132871 378.325468906 C 1083.29619773 369.017294783 1099.77335298 360.139902049 1112.08494547 357.440989937 C 1124.39653795 354.742077826 1131.53739071 358.463382623 1128.90364701 366.168832751 C 1126.26990331 373.874282879 1114.03327742 384.961538047 1100.1576606 392.236260447 C 1086.28204378 399.510982847 1071.87458392 402.373741982 1066.2684209 398.988318464 C 1060.66225789 395.602894947 1064.34314701 386.215662812 1074.88959578 376.93053797 C 1085.43604455 367.645413127 1102.02936637 359.208133015 1113.89844043 357.079671025 C 1125.7675145 354.951209036 1131.94041606 359.328040416 1128.44230715 367.349197793 C 1124.94419823 375.37035517 1112.01659691 386.406776114 1098.07020322 393.298528221 C 1084.12380953 400.190280329 1070.2739715 402.367325447 1065.49014351 398.438771315 C 1060.70631553 394.510217182 1065.40931863 384.766614346 1076.51488032 375.541926703 C 1087.62044202 366.317239061 1104.26311494 358.35404552 1115.64187802 356.804604218 C 1127.02064109 355.255162917 1132.20073537 360.269896923 1127.85234689 368.57446318 C 1123.5039584 376.879029436 1109.93743655 387.820176385 1095.97642319 394.301207546 C 1082.01540984 400.782238707 1068.77896204 402.264803617 1064.83673187 397.80893777 C 1060.89450171 393.353071924 1066.60068146 383.292332435 1078.22063789 374.165226554 C 1089.84059433 365.038120674 1106.4656042 357.581078673 1117.30823801 356.616897113 C 1128.15087183 355.652715552 1132.31730042 361.285159622 1127.13614179 369.8396952 C 1121.95498316 378.394230779 1107.80416837 389.196047594 1093.88475142 395.240260984 C 1079.96533448 401.284474375 1067.39557541 402.066589311 1064.31081703 397.101353949 C 1061.22605865 392.136118587 1067.91243828 381.798753493 1080.0 372.805981008 C 1092.08756172 363.813208523 1108.62796548 356.89234494 1118.89081058 356.517305539 C 1129.15365568 356.142266138 1132.28964184 362.369740406 1126.29657576 371.139799212 C 1120.30350969 379.909858017 1105.6253823 390.528849595 1091.80361034 396.1119073 C 1077.98183838 401.694965006 1066.12938203 401.773480667 1063.91451667 396.31886904 C 1061.69965132 390.864257413 1069.33930713 380.291891634 1081.84580178 371.469663266 C 1094.35229644 362.647434898 1110.74149173 356.290617607 1120.38322326 356.506230517 C 1130.02495479 356.721843427 1132.11787101 363.519272053 1125.33702944 372.469540154 C 1118.55618788 381.419808255 1103.40985153 391.813215664 1089.74137995 396.912636682 C 1076.07290838 402.012057699 1064.98548041 401.38665793 1063.64942656 395.464633834 C 1062.3133727 389.542609739 1070.8755425 378.777814461 1083.75061085 370.161654209 C 1096.6256792 361.545493957 1112.79767251 355.778319618 1121.77946662 356.583716642 C 1130.76126073 357.389113666 1131.80267958 364.729125805 1124.26136658 373.82356363 C 1116.72005359 382.918001455 1101.16649723 393.043974113 1087.70636415 397.639224874 C 1074.24623107 402.234475634 1063.96847664 400.9076787 1063.5166141 394.542088036 C 1063.06475156 388.176497372 1072.51495852 377.262618627 1085.70675721 368.887220728 C 1098.8985559 360.511822829 1114.78822832 355.357513817 1123.0739185 356.749451905 C 1131.35960867 358.141389994 1131.34533671 365.994430006 1123.0739185 375.196417464 C 1114.80250028 384.398404923 1098.90435259 394.216169111 1085.70675721 398.288746162 C 1072.50916183 402.361323213 1063.08246583 400.338471656 1063.5166141 393.554946411 C 1063.95076237 386.771421166 1074.25095384 375.752405291 1087.70636415 367.651494516 C 1101.16177446 359.550583741 1116.70514389 355.029894639 1124.26136658 357.002768949 C 1131.81758927 358.975643258 1130.74768398 367.310089724 1121.77946662 376.58257366 C 1112.81124927 385.855057596 1096.63252647 395.325080643 1083.75061085 398.858585154 C 1070.86869523 402.392089665 1062.33101564 399.681328795 1063.64942656 392.507183831 C 1064.96783747 385.333038866 1076.07653821 374.253255549 1089.74137995 366.459451407 C 1103.4062217 358.665647264 1118.54070048 354.796781292 1125.33702944 357.342647754 C 1132.13335841 359.888514216 1130.01212791 368.670807261 1120.38322326 377.976450654 C 1110.7543186 387.282094047 1094.36016671 396.366243513 1081.84580178 399.346447309 C 1069.33143685 402.326651105 1061.71715189 398.938896199 1063.91451667 391.403019265 C 1066.11188146 383.867142331 1077.98436065 372.771205948 1091.80361034 365.315891337 C 1105.62286002 357.860576725 1120.28750694 354.659112441 1126.29657576 357.76771975 C 1132.30564458 360.876327059 1129.14163033 370.071103488 1118.89081058 379.372435797 C 1108.63999083 388.673768106 1092.09642331 397.335465327 1080.0 399.750368178 C 1067.90357669 402.16527103 1061.24334638 398.114163381 1064.31081703 390.246898794 C 1067.37828768 382.379634207 1079.96673904 371.312224179 1093.88475142 364.225419019 C 1107.80276381 357.13861386 1121.93852952 354.61744243 1127.13614179 358.276273321 C 1132.33375406 361.935104212 1128.13969642 371.505339906 1117.30823801 380.764907949 C 1106.4767796 390.024475991 1089.85041156 398.228843369 1078.22063789 400.068721315 C 1066.59086422 401.908599261 1060.91150699 397.21045125 1064.83673187 389.043477708 C 1068.76195676 380.876504166 1082.01569103 369.882185046 1095.97642319 363.192425401 C 1109.93715535 356.502665757 1123.48712011 354.671939049 1127.85234689 358.866260702 C 1132.21757367 363.060582355 1127.01036063 372.967741352 1115.64187802 382.148260116 C 1104.2733954 391.328778879 1087.63117535 399.042780323 1076.51488032 400.300224824 C 1065.3985853 401.557669325 1060.72296989 396.231398735 1065.49014351 387.797601758 C 1070.25731714 379.363804781 1084.12296623 368.486846812 1098.07020322 362.221069984 C 1112.01744022 355.955293155 1124.92704309 354.822382859 1128.44230715 359.535306221 C 1131.9575712 364.248229582 1125.75817038 374.452419251 1113.89844043 383.516922027 C 1102.03871048 392.581424802 1085.44765077 399.77399875 1074.88959578 400.443946521 C 1064.33154079 401.113894293 1060.67849426 395.180948136 1066.2684209 386.514287648 C 1071.85834755 377.84762716 1086.28007937 367.131828013 1100.1576606 361.315264071 C 1114.03524182 355.49870013 1126.2525004 355.068168077 1128.90364701 360.280715868 C 1131.55479362 365.49326366 1124.3881678 375.953395329 1112.08494547 384.865382563 C 1099.78172313 393.777369798 1083.3086301 400.419554293 1073.35132871 400.499307691 C 1063.39402731 400.579061089 1060.77825919 394.063329247 1067.16843019 385.19870283 C 1073.55860119 376.334076413 1088.47834452 365.822584829 1102.23038986 360.478655026 C 1115.9824352 355.134725222 1127.4581549 355.408305012 1129.23450882 361.099488143 C 1131.01086275 366.790671273 1122.90586942 377.464625685 1110.20869543 386.188211951 C 1097.51152144 394.911798217 1081.22272642 400.976847528 1071.90627316 400.466085414 C 1062.5898199 399.955323299 1061.02186297 392.883042323 1068.18654736 383.8561447 C 1075.35123176 374.829247076 1090.70891005 364.564389122 1104.28004487 359.714611576 C 1117.85117969 354.864834029 1128.53915183 355.841424052 1129.43356032 361.988326137 C 1130.32796882 368.135228221 1121.31724392 378.980025128 1108.27724531 387.480083623 C 1095.23724671 395.980142118 1079.19833893 401.44363443 1070.56024787 400.344413463 C 1061.92215682 399.245192495 1061.40832468 391.644839965 1069.31867281 382.492019265 C 1077.22902094 373.339198566 1092.96279426 363.362307202 1106.29837239 359.026210254 C 1119.63395051 354.690113307 1129.4911384 356.365781181 1129.5 362.943650814"
     style="fill:none;stroke:#000000;stroke-width:3;stroke-linejoin:miter;stroke-miterlimit:4;stroke-dasharray:none" />
</svg>
