<?xml version="1.0" encoding="UTF-8" standalone="no"?>
<!-- Created with Inkscape (http://www.inkscape.org/) -->

<svg
   xmlns:dc="http://purl.org/dc/elements/1.1/"
   xmlns:cc="http://creativecommons.org/ns#"
   xmlns:rdf="http://www.w3.org/1999/02/22-rdf-syntax-ns#"
   xmlns:svg="http://www.w3.org/2000/svg"
   xmlns="http://www.w3.org/2000/svg"
   xmlns:sodipodi="http://sodipodi.sourceforge.net/DTD/sodipodi-0.dtd"
   xmlns:inkscape="http://www.inkscape.org/namespaces/inkscape"
   version="1.1"
   id="svg2"
   xml:space="preserve"
   width="1360"
   height="768"
   viewBox="0 0 1360 768"
   sodipodi:docname="comandoemi.svg"
   inkscape:version="0.92.1 r15371"><metadata
     id="metadata8"><rdf:RDF><cc:Work
         rdf:about=""><dc:format>image/svg+xml</dc:format><dc:type
           rdf:resource="http://purl.org/dc/dcmitype/StillImage" /><dc:title></dc:title></cc:Work></rdf:RDF></metadata><defs
     id="defs6" /><sodipodi:namedview
     pagecolor="#ffffff"
     bordercolor="#666666"
     borderopacity="1"
     objecttolerance="10"
     gridtolerance="10"
     guidetolerance="10"
     inkscape:pageopacity="0"
     inkscape:pageshadow="2"
     inkscape:window-width="1366"
     inkscape:window-height="707"
     id="namedview4"
     showgrid="false"
     inkscape:zoom="1.2291667"
     inkscape:cx="827.38391"
     inkscape:cy="224.72915"
     inkscape:window-x="0"
     inkscape:window-y="0"
     inkscape:window-maximized="1"
     inkscape:current-layer="g12" /><g
     id="g10"
     inkscape:groupmode="layer"
     inkscape:label="comandoemi"
     transform="matrix(1.3333333,0,0,-1.3333333,0,768)"><g
       id="g12"><path
         d="m 2.301,503.094 h 156.57 V 489.278 H 2.301 Z"
         style="fill:#fefeff;fill-opacity:0.984694;fill-rule:nonzero;stroke:none"
         id="path14"
         inkscape:connector-curvature="0" /><text
         transform="matrix(1,0,0,-1,71.012655,499.29482)"
         style="font-variant:normal;font-weight:normal;font-size:16px;font-family:CharterBT;-inkscape-font-specification:CharterBT-Roman;writing-mode:lr-tb;fill:#000000;fill-opacity:1;fill-rule:nonzero;stroke:none"
         id="text62"><tspan
           x="0 9.6000004 19.712 26.016001 35.535999 45.647999 55.248001 63.616001 73.776001 89.776001 99.375999 109.488 115.792 125.312 135.424 145.07201 153.392 163.552 170.864 183.952 194.112 199.728 206.54401 212.84801 217.23199 227.392 233.008 248.56 254.17599 261.44 274.91199 280.52802 293.616 303.58401 309.20001 324.75201 330.36801 337.67999 343.29599 348.91199 359.07199 369.23199 379.44 385.24799 395.40799 408.88 414.496 421.80801 421.80801 475.08801 483.35999 487.80801 495.80801 500.20801 509.02399 513.53601 521.64801 529.56799 534.01599 539.12 545.23199 549.67999 558.57599 567.47198 575.74402 580.19202 585.29602 590.64001 595.08801 601.20001 609.31201 621.64801 626.09601 631.20001 639.05603 643.50403 649.90399 654.30402 659.40802 668.03198 672.47998 681.37598 690.27197 694.71997 699.82397 706.96002 711.40802 720.30402 724.75201 729.80798 739.69598 748.59198 753.03998"
           y="0"
           sodipodi:role="line"
           id="tspan16">antenas6@antenas6:~$ rtl_fm -M wbfm -f 103.3M -s k | play -r 32k -t raw -e s -b 16 -c 1 -V1 -</tspan><tspan
           x="0 8.8000002 18.496 28.608 38.720001 48.688 54.304001 64.463997 70.080002 80.047997 89.568001 99.024002 103.408 111.728 121.248 128.51199 136.832 144.09599"
           y="16.649328"
           sodipodi:role="line"
           id="tspan18">Found 1 device(s):</tspan><tspan
           x="0 7.2639999 14.528 20.143999 27.455999 34 43.551998 56.639999"
           y="48.298656"
           sodipodi:role="line"
           id="tspan20">-: (raw)</tspan><tspan
           x="0 11.232 21.344 31.455999 39.776001 49.472 59.439999 63.824001 73.935997 83.903999 91.167999 96.783997 107.712 112.048 122.016 132.12801 141.64799 151.616 157.23199 166.88 178.048 191.52"
           y="76.947983"
           sodipodi:role="line"
           id="tspan22"> Encoding: Signed PCM </tspan><tspan
           x="11.232 22.4 32.512001 42.112 52.223999 62.335999 71.856003 76.239998 84.559998 91.823997 97.440002 107.6 113.216 129.216 134.832 144.992 155.2 162.464 172.43201 176.81599 183.12"
           y="93.597313"
           sodipodi:role="line"
           id="tspan24">Channels: 1 @ 16-bit </tspan><tspan
           x="0 10.928 20.528 36.080002 46.048 50.431999 59.952 66.463997 76.064003 82.367996 91.888 99.199997"
           y="110.24667"
           sodipodi:role="line"
           id="tspan26">Samplerate: </tspan><tspan
           x="0 10.752 20.271999 30.24 34.576 44.063999 53.456001 63.424 73.024002 77.407997 87.519997 94.783997 100.4 110.096 115.712 121.328"
           y="123.896"
           sodipodi:role="line"
           id="tspan28">Replaygain: off </tspan><tspan
           x="11.232 23.552 33.664001 40.223999 49.824001 56.127998 60.512001 70.208 80.32 87.584 93.199997 103.312 113.424 122.88 132.992 142.688 155.776 165.888"
           y="143.54533"
           sodipodi:role="line"
           id="tspan30">Duration: unknown </tspan><tspan
           x="0 6.7199998 16.832001 24.096001 34.304001 40.112 50.271999 60.431999 77.648003 83.264 93.424004 103.632 110.896 121.056 131.26401 138.528 148.688 158.896 164.70399 174.864 185.024 190.64 197.952 208.112 218.272 225.584 235.744 245.90401 253.216 263.37601 273.53601 279.34399 289.504 299.71201 306.97601 312.59201 325.18399 335.29599 341.60001 348.86401 359.07199 387.15201 394.41599 428.112 435.37601 469.07199 476.384 521.31201 532.47998 536.86401 541.16797 551.13599 558.39996 568.56"
           y="163.19466"
           sodipodi:role="line"
           id="tspan32">In:0.00% 00:00:00.00 [00:00:00.00] Out:0 [ | ] Clip:0 </tspan><tspan
           x="0 10.16 17.424 28.656 39.439999 48.959999 58.560001 62.944 69.248001 78.767998 88.223999 94.031998 99.648003 110.256 120.112 129.008 139.168 149.37601 159.536 169.696 181.44 193.45599 200.17599 212.496 219.26401 230.384 236.192 241.808 252.73599 264.70401 271.96799 277.58401 287.74399 297.90399 308.112 318.272 328.43201 338.64001 348.79999"
           y="182.84398"
           sodipodi:role="line"
           id="tspan34">0: Realtek, RTL2838UHIDIR, SN: 00000001</tspan><tspan
           x="0 11.696 20.016001 24.4 34.512001 44.48 50.096001 60.063999 69.584 79.040001 83.344002 91.664001 101.184 106.8 116.96 124.272 129.888 142.28799 151.808 161.92 171.44 178.256 182.64 190.96001 196.576 207.2 217.056 225.952 236.112 246.32001 256.48001 266.64001 278.336 283.952 296.54401 306.70401"
           y="220.49335"
           sodipodi:role="line"
           id="tspan36">Using device 0: Generic RTL2832U OEM</tspan><tspan
           x="0 8.8000002 18.496 28.608 38.720001 48.688 54.304001 65.120003 74.720001 80.335999 89.935997 99.456001 103.84 109.456 122.928 127.264 135.584 142.39999 152.09599 157.71201 168.832 179.03999 189.2 199.36 209.26401 214.88 221.18401 231.29601 241.408 250.92799"
           y="237.14267"
           sodipodi:role="line"
           id="tspan38">Found Rafael Micro R820T tuner</tspan><tspan
           x="0 8.3039999 18.416 28.528 38.048 44.863998 50.48 60.448002 70.047997 74.431999 84.543999 90.160004 98.480003 108 114.304 119.92 126.224 135.92 141.536 151.136 161.248 167.60001 177.29601 192.84801 202.448 208.752 213.136 221.45599"
           y="256.79199"
           sodipodi:role="line"
           id="tspan40">Tuner gain set to automatic.</tspan><tspan
           x="0 8.3039999 18.416 28.528 38.048 48.015999 53.632 59.936001 69.632004 75.248001 85.407997 95.615997 115.936 126.144 136.304 146.464 156.672 166.832 172.448 184.464 192.864"
           y="273.44131"
           sodipodi:role="line"
           id="tspan42">Tuned to 10368000 Hz.</tspan><tspan
           x="0 12.592 21.92 31.440001 38.256001 46.576 56.223999 71.776001 81.744003 86.080002 90.416 100.528 110.496 116.112 120.448 130.56 140.528 150.64 156.944 162.56 172.528 181.98399 189.248 194.864 205.024 215.18401 224.64"
           y="296.09064"
           sodipodi:role="line"
           id="tspan44">Oversampling input by: 21x.</tspan><tspan
           x="0 12.592 21.92 31.440001 38.256001 46.576 56.223999 71.776001 81.744003 86.080002 90.416 100.528 110.496 116.112 125.808 135.92 142.224 152.192 162.304 168.608 174.224 184.192 193.64799 200.912 206.528 216.688 226.144"
           y="312.73999"
           sodipodi:role="line"
           id="tspan46">Oversampling output by: 1x.</tspan><tspan
           x="0 10.96 21.072001 26.688 32.304001 41.824001 48.639999 54.256001 62.576 66.959999 75.248001 84.767998 92.031998 97.648003 107.808 113.616 123.776 133.98399 149.536"
           y="329.38934"
           sodipodi:role="line"
           id="tspan48">Buffer size: 8.13ms</tspan><tspan
           x="0 10.112 19.568001 29.167999 37.487999 43.792 49.408001 57.776001 67.375999 82.928001 92.896004 97.279999 106.8 112.416 118.928 128.528 134.832 144.35201 149.968 154.35201 162.672 169.936 175.552 185.71201 195.87199 206.08 216.24001 226.39999 236.608 246.76801 252.576 262.73599 272.944 283.104 293.26401 303.47198 313.63199 319.24799 331.26401"
           y="346.03867"
           sodipodi:role="line"
           id="tspan50">Exact sample rate is: 1008000.009613 Hz</tspan><tspan
           x="0 10.928 20.528 36.080002 46.048 50.431999 54.736 64.848 74.816002 80.431999 90.031998 96.335999 101.952 112.16 122.32 132.48 142.64 152.84801 163.008 173.168 178.784 189.71201 197.024 205.34399"
           y="362.68799"
           sodipodi:role="line"
           id="tspan52">Sampling at 1008000 S/s.</tspan><tspan
           x="0 12.592 22.704 29.007999 38.976002 49.088001 55.391998 61.007999 70.608002 76.912003 82.528 92.736 102.896 113.056 123.264 133.424 139.03999 151.056 159.45599"
           y="382.33731"
           sodipodi:role="line"
           id="tspan54">Output at 48000 Hz.</tspan><tspan
           x="0 6.7199998 16.832001 24.096001 34.304001 40.112 50.271999 60.431999 77.648003 83.264 93.424004 103.632 110.896 121.056 131.26401 138.528 148.688 158.896 164.70399 174.864 185.024 190.64 197.952 208.112 218.272 225.584 235.744 245.90401 253.216 263.37601 273.53601 279.34399 289.504 299.71201 306.97601 312.59201 325.18399 335.29599 341.60001 348.86401 359.07199 369.23199 379.392 388.84799 400.07999 407.392 420.48001 433.56799 446.65601 459.74399 472.832 485.92001 493.18399 506.272 519.35999 532.448 545.53601 558.62402 571.71198 578.97601 584.59198 596.65601 606.62402 613.888 624.04797 629.85602 640.01599 645.63202 656.84802 661.18402 665.52002 675.48798 682.75201 692.91199 739.67999 750.60797 754.94397 764.91199 775.02399 784.62402 789.008 794.62402 802.94397 812.54401 822.65601 832.62402 842.73602 849.03998 854.84802 860.46399 869.98401 879.44 883.776 890.08002 894.41602 904.52802 914.49597"
           y="398.98666"
           sodipodi:role="line"
           id="tspan56">In:0.00% 00:00:06.91 [00:00:00.00] Out:213k [======|======] Hd:2.3 Clip:0 Signal caught, exiting!</tspan><tspan
           x="0 11.696 20.016001 29.535999 36.352001 41.967999 50.287998 59.936001 70.047997 78.367996 87.888 92.272003 98.031998 103.648 113.168 122.624 127.008 133.312 137.616 147.728 157.696 163.504"
           y="421.63599"
           sodipodi:role="line"
           id="tspan58">User cancel, exiting..</tspan><tspan
           x="0 6.7199998 16.832001 24.096001 34.304001 40.112 50.271999 60.431999 77.648003 83.264 93.424004 103.632 110.896 121.056 131.26401 138.528 148.688 158.896 164.70399 174.864 185.024 190.64 197.952 208.112 218.272 225.584 235.744 245.90401 253.216 263.37601 273.53601 279.34399 289.504 299.71201 306.97601 312.59201 325.18399 335.29599 341.60001 348.86401 359.07199 369.23199 379.392 388.84799 400.07999 407.392 420.48001 433.56799 446.65601 459.74399 472.832 485.92001 493.18399 506.272 519.35999 532.448 545.53601 558.62402 571.71198 578.97601 584.59198 596.65601 606.62402 613.888 624.04797 629.85602 640.01599 645.63202 656.84802 661.18402 665.52002 675.48798 682.75201"
           y="441.28531"
           sodipodi:role="line"
           id="tspan60">In:0.00% 00:00:07.03 [00:00:00.00] Out:221k [======|======] Hd:1.3 Clip:0</tspan></text>
<path
         d="M 497.809,449.055 H 823.817 V 395.957 H 497.809 Z"
         style="fill:#fefeff;fill-opacity:0.984694;fill-rule:nonzero;stroke:none"
         id="path64"
         inkscape:connector-curvature="0" /><g
         id="g66"
         transform="matrix(1,0,0,-1,0,576)"><path
           d="m 671.098,130.605 h 326.008 v 53.098 H 671.098 Z"
           style="fill:none;stroke:#000000;stroke-width:0.318645;stroke-linecap:butt;stroke-linejoin:miter;stroke-miterlimit:4;stroke-dasharray:none;stroke-opacity:1"
           id="path68"
           inkscape:connector-curvature="0" /></g><text
         transform="matrix(1,0,0,-1,683.99437,422.29439)"
         style="font-variant:normal;font-weight:normal;font-size:16px;font-family:'DejaVu Sans';-inkscape-font-specification:DejaVuSans;writing-mode:lr-tb;fill:#000000;fill-opacity:1;fill-rule:nonzero;stroke:none"
         id="text74"><tspan
           x="0 9.1999998 13.504 23.632 33.183998 37.568001 53.104 62.624001 72.751999 79.024002 88.543999 94.143997 102.464 111.968 117.568 121.872 132 141.936 148.752 158.256 166.576 176.16 181.75999 191.26401 195.64799 201.248 209.552 219.23199 234.81599 244.368 254.496 264.43201 274.112 279.71201 289.664 299.18399"
           y="0"
           sodipodi:role="line"
           id="tspan70">Finalmente se ingresa el comando de </tspan><tspan
           x="0 8.3199997 12.672 22.799999 29.072001 38.751999 48.880001 53.167999 61.551998 71.136002 79.440002 83.823997 93.503998 103.632 109.2 119.152 128.672 134.272 138.576 148.17599 153.776 163.28 178.864 183.2 191.52 201.2 207.728 217.312 223.104"
           y="16.649328"
           sodipodi:role="line"
           id="tspan72">sintonizacion de la emisora. </tspan></text>
<path
         d="M 459.398,241.293 H 810.421 V 188.121 H 459.398 Z"
         style="fill:#fefeff;fill-opacity:0.984694;fill-rule:nonzero;stroke:none"
         id="path76"
         inkscape:connector-curvature="0" /><g
         id="g78"
         transform="matrix(0.99983634,0,0,-1.3776075,-173.76765,724.43802)"><path
           d="M 622.875,385.098 H 973.898 V 438.27 H 622.875 Z"
           style="fill:none;stroke:#000000;stroke-width:0.33088201;stroke-linecap:butt;stroke-linejoin:miter;stroke-miterlimit:4;stroke-dasharray:none;stroke-opacity:1"
           id="path80"
           inkscape:connector-curvature="0" /></g><text
         transform="scale(1,-1)"
         style="font-variant:normal;font-weight:normal;font-size:16px;font-family:'DejaVu Sans';-inkscape-font-specification:DejaVuSans;writing-mode:lr-tb;fill:#000000;fill-opacity:1;fill-rule:nonzero;stroke:none"
         id="text86"
         x="460.67151"
         y="-174.12187"><tspan
           x="460.67151 473.26352 483.21552 489.48752 499.03952 509.16754 513.50354 523.0235 533.15155 543.07153 552.76752 558.36749 566.67151 576.3515 591.93555 601.5835 607.18353 613.99951 623.51953 631.83954 641.91949 646.28754 652.55951 662.17554 672.14349 681.82349 687.42352 691.74353 701.32751 706.92749 711.31152 721.43951 727.0235 736.70355 743.51953 759.10352 768.65552 776.95953 781.32751 791.00751 801.1355"
           y="-174.12187"
           sodipodi:role="line"
           id="tspan82">Obteniendo como resultado la informaci칩n </tspan><tspan
           x="460.67151 470.19153 480.31952 485.88751 495.83951 505.43951 511.71155 521.42352 529.74353 535.32751 545.27954 554.7995 560.39954 564.76752 574.3515 579.95154 588.27155 597.77551 607.9035 617.4715 621.83954 627.43951 634.25549 643.77551 652.07953 656.44751 666.39954 670.6875 680.65552"
           y="-154.47253"
           sodipodi:role="line"
           id="tspan84">en datos de la se침al recibida o los datos </tspan><tspan
           sodipodi:role="line"
           id="tspan156"
           x="460.67151"
           y="-0.61016953">que se reciban en dicha frecuencia. </tspan></text>
<g
         id="g88"
         transform="matrix(-1,0,0,-0.570548,0,576)"><path
           d="m -704.352,227.57 2.262,-47.61"
           style="fill:none;stroke:#000000;stroke-width:1.47710896;stroke-linecap:butt;stroke-linejoin:miter;stroke-miterlimit:4;stroke-dasharray:none;stroke-opacity:1"
           id="path90"
           inkscape:connector-curvature="0" /></g><g
         id="g92"
         transform="matrix(0.0476188,-0.476082,1,0.0226705,0,576)"><path
           d="m 248.537,690.255 6.297,-6.3 -22.025,6.303 22.026,6.291 z"
           style="fill:#000000;fill-opacity:1;fill-rule:evenodd;stroke:#000000;stroke-width:1.67848098;stroke-linecap:butt;stroke-linejoin:miter;stroke-miterlimit:4;stroke-dasharray:none;stroke-opacity:1"
           id="path94"
           inkscape:connector-curvature="0" /></g><text
         transform="matrix(1,0,0,-1,508.59374,498.6328)"
         style="font-variant:normal;font-weight:normal;font-size:16px;font-family:CharterBT;-inkscape-font-specification:CharterBT-Roman;writing-mode:lr-tb;fill:#000000;fill-opacity:1;fill-rule:nonzero;stroke:none"
         id="text102"><tspan
           x="0 8.8959999 17.792 26.688 35.632"
           y="0"
           sodipodi:role="line"
           id="tspan96">1000 </tspan><tspan
           x="-338.08594 -329.18994 -320.29395 -311.39795 -302.45395 -293.55792 -284.66193 -275.76593 -263.95795"
           y="109.57032"
           sodipodi:role="line"
           id="tspan98">1000000Hz</tspan><tspan
           x="-331.64062"
           y="272.46094"
           id="tspan100">3</tspan></text>
<g
         id="g104"
         transform="matrix(0.416016,0,0,-1,0,576)"><path
           d="m 1209.378,135.77 h 326.112 v 53.117 h -326.112 z"
           style="fill:none;stroke:#000000;stroke-width:0.318744;stroke-linecap:butt;stroke-linejoin:miter;stroke-miterlimit:4;stroke-dasharray:none;stroke-opacity:1"
           id="path106"
           inkscape:connector-curvature="0" /></g><text
         transform="matrix(1,0,0,-1,513.28124,418.35937)"
         style="font-variant:normal;font-weight:normal;font-size:16px;font-family:'DejaVu Sans';-inkscape-font-specification:DejaVuSans;writing-mode:lr-tb;fill:#000000;fill-opacity:1;fill-rule:nonzero;stroke:none"
         id="text112"><tspan
           x="0 13.792 23.92 33.759998 42.080002 48.352001 54.639999 64.480003 74.255997 79.328003 89.472 99.311996 104.384 108.816 118.608"
           y="0"
           sodipodi:role="line"
           id="tspan108">Muestreo de la </tspan><tspan
           x="0 8.3199997 18.16 28.288 38.080002 42.512001"
           y="20"
           sodipodi:role="line"
           id="tspan110">se침al.</tspan></text>
<g
         id="g114"
         transform="matrix(-1,0,0,-0.783996,0,576)"><path
           d="m -538.664,173.56 2.25,-47.369"
           style="fill:none;stroke:#000000;stroke-width:1.46951401;stroke-linecap:butt;stroke-linejoin:miter;stroke-miterlimit:4;stroke-dasharray:none;stroke-opacity:1"
           id="path116"
           inkscape:connector-curvature="0" /></g><g
         id="g118"
         transform="matrix(0.0476188,-0.476082,1,0.0226705,0,576)"><path
           d="m 232.823,525.327 6.297,-6.296 -22.026,6.299 22.027,6.295 z"
           style="fill:#000000;fill-opacity:1;fill-rule:evenodd;stroke:#000000;stroke-width:1.67848098;stroke-linecap:butt;stroke-linejoin:miter;stroke-miterlimit:4;stroke-dasharray:none;stroke-opacity:1"
           id="path120"
           inkscape:connector-curvature="0" /></g><g
         id="g122"
         transform="matrix(0.476082,0.0476188,-0.0226705,1,0,576)"><path
           d="m 562.974,-208.207 6.297,-6.296 -22.025,6.299 22.018,6.296 z"
           style="fill:#000000;fill-opacity:1;fill-rule:evenodd;stroke:#000000;stroke-width:1.67848098;stroke-linecap:butt;stroke-linejoin:miter;stroke-miterlimit:4;stroke-dasharray:none;stroke-opacity:1"
           id="path124"
           inkscape:connector-curvature="0" /></g><g
         id="g126"
         transform="matrix(0,-0.20668,1,0,0,576)"><path
           d="m 866.791,501.922 10.887,-229.18"
           style="fill:none;stroke:#000000;stroke-width:7.11009216;stroke-linecap:butt;stroke-linejoin:miter;stroke-miterlimit:4;stroke-dasharray:none;stroke-opacity:1"
           id="path128"
           inkscape:connector-curvature="0" /></g><g
         id="g130"
         transform="matrix(0.416016,0,0,-1,0,576)"><path
           d="m 969.51,296.223 h 326.103 V 349.34 H 969.51 Z"
           style="fill:none;stroke:#000000;stroke-width:0.318744;stroke-linecap:butt;stroke-linejoin:miter;stroke-miterlimit:4;stroke-dasharray:none;stroke-opacity:1"
           id="path132"
           inkscape:connector-curvature="0" /></g><text
         transform="matrix(1,0,0,-1,415.42968,258.39843)"
         style="font-variant:normal;font-weight:normal;font-size:16px;font-family:'DejaVu Sans';-inkscape-font-specification:DejaVuSans;writing-mode:lr-tb;fill:#000000;fill-opacity:1;fill-rule:nonzero;stroke:none"
         id="text138"><tspan
           x="0 8.0640001 14.304 24.143999 32.928001 43.056 52.896 63.071999 71.856003 76.288002 86.080002 91.152 101.296"
           y="0"
           sodipodi:role="line"
           id="tspan134">Frecuencia de</tspan><tspan
           x="0 8.3199997 12.752 22.879999 29.152 38.928001 49.056 53.487999 61.872002 71.664001 80.496002 84.928001 94.704002 104.832"
           y="20"
           sodipodi:role="line"
           id="tspan136">sintonizaci칩n.</tspan></text>
<g
         id="g140"
         transform="matrix(0,-0.450771,1,0,0,576)"><path
           d="m 760.147,402.828 5.321,-112.047"
           style="fill:none;stroke:#000000;stroke-width:3.47616005;stroke-linecap:butt;stroke-linejoin:miter;stroke-miterlimit:4;stroke-dasharray:none;stroke-opacity:1"
           id="path142"
           inkscape:connector-curvature="0" /></g><g
         id="g144"
         transform="matrix(0.476082,0.0476188,-0.0226705,1,0,576)"><path
           d="m 593.004,-373.289 6.297,-6.3 -22.026,6.303 22.027,6.295 z"
           style="fill:#000000;fill-opacity:1;fill-rule:evenodd;stroke:#000000;stroke-width:1.67848098;stroke-linecap:butt;stroke-linejoin:miter;stroke-miterlimit:4;stroke-dasharray:none;stroke-opacity:1"
           id="path146"
           inkscape:connector-curvature="0" /></g><g
         id="g148"
         transform="matrix(0.0476188,-0.476082,1,0.0226705,0,576)"><path
           d="m 226.546,435.376 6.297,-6.296 -22.026,6.303 22.027,6.291 z"
           style="fill:#000000;fill-opacity:1;fill-rule:evenodd;stroke:#000000;stroke-width:1.67848098;stroke-linecap:butt;stroke-linejoin:miter;stroke-miterlimit:4;stroke-dasharray:none;stroke-opacity:1"
           id="path150"
           inkscape:connector-curvature="0" /></g><g
         id="g152"
         transform="matrix(-0.24012,0,0,-1,0,576)"><path
           d="m -1863.717,295.625 9.371,-196.984"
           style="fill:none;stroke:#000000;stroke-width:6.11113691;stroke-linecap:butt;stroke-linejoin:miter;stroke-miterlimit:4;stroke-dasharray:none;stroke-opacity:1"
           id="path154"
           inkscape:connector-curvature="0" /></g></g></g></svg>